<svg
  xmlns="http://www.w3.org/2000/svg"
  viewBox="0 0 24 24"
  fill="white"
  class="w-6 h-6"
>
  <path
    fill-rule="evenodd"
    d="M12 0C5.373 0 0 5.373 0 12c0 5.305 3.438 9.798 8.207 11.385.6.11.828-.26.828-.577v-2.068c-3.338.726-4.041-1.572-4.041-1.572-.545-1.382-1.333-1.749-1.333-1.749-1.087-.743.083-.728.083-.728 1.203.084 1.834 1.235 1.834 1.235 1.071 1.834 2.809 1.305 3.492.999.108-.777.42-1.305.765-1.606-2.664-.302-5.467-1.332-5.467-5.93 0-1.31.469-2.378 1.237-3.216-.124-.302-.536-1.525.117-3.174 0 0 1.007-.322 3.301 1.228.959-.267 1.99-.401 3.011-.405 1.021.004 2.053.138 3.014.405 2.287-1.549 3.291-1.228 3.291-1.228.656 1.649.246 2.872.122 3.174.77.838 1.239 1.906 1.239 3.216 0 4.606-2.804 5.626-5.473 5.923.43.371.817 1.104.817 2.221v3.293c0 .319.228.689.832.574C20.563 21.797 24 17.305 24 12 24 5.373 18.627 0 12 0z"
    clip-rule="evenodd"
  />
</svg>
