<svg
  xmlns="http://www.w3.org/2000/svg"
  viewBox="0 0 24 24"
  fill="white"
  class="w-6 h-6"
>
  <path
    d="M22.23 0H1.77C.79 0 0 .79 0 1.77v20.46C0 23.21.79 24 1.77 24h20.46c.98 0 1.77-.79 1.77-1.77V1.77C24 .79 23.21 0 22.23 0zm-14.36 20.54h-3.7V9.47h3.7v11.07zM6.54 8.11c-1.19 0-2.16-.97-2.16-2.16 0-1.2.97-2.16 2.16-2.16s2.16.97 2.16 2.16c0 1.19-.97 2.16-2.16 2.16zm15.46 12.43h-3.7v-5.56c0-1.32-.03-3.01-1.83-3.01-1.83 0-2.11 1.43-2.11 2.9v5.67h-3.7V9.47h3.55v1.51h.05c.49-.92 1.69-1.9 3.48-1.9 3.72 0 4.4 2.45 4.4 5.63v5.84z"
  />
</svg>
